<svg xmlns="http://www.w3.org/2000/svg" viewBox="0 0 17.9 14.5" style="enable-background:new 0 0 17.9 14.5" xml:space="preserve"><path style="fill:#bdc0cb" d="M15.4 0H2.6c-.8 0-1.4.6-1.4 1.3V11c0 .7.6 1.3 1.3 1.3h12.8c.7 0 1.3-.6 1.3-1.3V1.3c.1-.7-.5-1.3-1.2-1.3zm.4 11.1c0 .2-.2.4-.4.4H2.6c-.2 0-.4-.2-.4-.4V1.3c0-.2.2-.4.4-.4h12.8c.2 0 .4.2.4.4v9.8zM17.5 14.5H.5c-.3 0-.5-.2-.5-.5s.2-.5.5-.5h17c.3 0 .5.2.5.5s-.3.5-.5.5z"/><path style="fill:#bdc0cb" d="m12 9.3-1.2-1.4c.5-.5.8-1.3.8-2.1 0-1.7-1.4-3.1-3.1-3.1S5.3 4.1 5.3 5.8 6.7 9 8.5 9c.6 0 1.1-.2 1.6-.4l1.2 1.4c.1.1.2.2.4.2.1 0 .2 0 .3-.1.2-.3.2-.6 0-.8zM6.3 5.8c0-1.2 1-2.2 2.2-2.2s2.2 1 2.2 2.2c0 .7-.3 1.3-.8 1.7-.4.3-.9.5-1.4.5-1.2 0-2.2-1-2.2-2.2z"/></svg>