<svg xmlns="http://www.w3.org/2000/svg" viewBox="0 0 17.6 12.6" style="enable-background:new 0 0 17.6 12.6" xml:space="preserve"><path style="fill:#bdc0cb" d="M8.3 1.9v9.4-9.4zM10.7 4.2c-.1 0-.3-.1-.3-.2-.1-.2 0-.4.2-.5.8-.4 1.6-.6 2.4-.6.9 0 1.7.2 2.5.6.2.1.2.3.2.5-.1.2-.3.2-.5.2-.7-.4-1.4-.5-2.1-.5s-1.4.2-2.1.5h-.3zM10.7 6.5c-.1 0-.3-.1-.3-.2-.1-.2 0-.4.2-.5.8-.4 1.6-.6 2.4-.6.9 0 1.7.2 2.5.6.2.1.2.3.2.5-.1.2-.3.2-.5.2-.7-.4-1.4-.5-2.1-.5s-1.4.2-2.1.5h-.3zM15.2 8.7H15c-.7-.4-1.4-.6-2.1-.5-.7 0-1.4.2-2.1.5-.2.1-.4 0-.5-.2s0-.4.2-.5c.8-.4 1.6-.6 2.4-.6.9 0 1.7.2 2.5.6.2.1.2.3.2.5-.1.1-.3.2-.4.2zM9.3 1.9v9.4-9.4z"/><path style="fill:#bdc0cb" d="M17.3 1.1C16.4.6 14.9 0 12.9 0c-1.8 0-3.2.5-4.1 1-1-.5-2.4-1-4.2-1C2.7 0 1.2.6.2 1.1c-.1.1-.2.3-.2.5v10.5c0 .2.1.3.2.4.1.1.2.1.3.1s.1 0 .2-.1c.9-.4 2.3-.9 4.1-.9 1.6 0 2.9.5 3.7.9h.1c.2.1.3.1.5 0 .9-.4 2.3-.9 4-.9s3 .5 3.8.9c.1.1.3.1.5 0 .1-.1.2-.2.2-.4V1.6c0-.2-.1-.4-.3-.5zM4.7 10.6c-1.5 0-2.7.3-3.7.7V1.9c.8-.4 2-.9 3.6-.9s2.9.4 3.7.9v9.4c-.9-.3-2.1-.7-3.5-.7h-.1zm11.9.7c-.9-.3-2.1-.7-3.5-.7h-.2c-1.5 0-2.7.3-3.6.7V1.9c.8-.4 2-.9 3.6-.9s2.9.4 3.7.9v9.4z"/><path style="fill:#bdc0cb" d="M6.2 3.7c-.2-.2-.4-.4-.7-.5S5 3 4.6 3s-.7 0-1 .2-.5.3-.7.6c-.1.2-.2.4-.2.7 0 .1 0 .2.1.2.1.1.2.1.3.1s.3 0 .4-.4c.1-.3.2-.5.4-.7.1-.1.4-.2.7-.2.3 0 .5.1.7.2s.3.4.3.6c0 .1 0 .2-.1.3-.1.3-.2.4-.3.4 0 .1-.1.2-.3.4-.2.1-.4.3-.5.4-.1.1-.1.2-.2.4-.1.1-.1.3-.1.5 0 .1 0 .2.1.3.1.1.2.1.2.1.2 0 .3-.1.3-.3 0-.1.1-.2.1-.3 0-.1 0-.1.1-.2s.1-.1.2-.1c0-.1.1-.2.2-.3.3-.3.5-.5.7-.6.1-.1.2-.2.3-.4.1-.2.1-.3.1-.5 0-.3-.1-.5-.2-.7zM4.8 7.8c-.1 0-.2-.1-.3-.1s-.2 0-.3.1-.2.2-.2.4c0 .1 0 .3.1.3.2.2.5.2.7 0 .1-.1.2-.2.2-.3 0-.2-.1-.3-.2-.4z"/></svg>