<svg xmlns="http://www.w3.org/2000/svg" viewBox="0 0 566.9 566.9" style="enable-background:new 0 0 566.9 566.9" xml:space="preserve"><linearGradient id="a" gradientUnits="userSpaceOnUse" x1="142.551" y1="312.176" x2="233.803" y2="312.176" gradientTransform="matrix(1 0 0 -1 0 567.276)"><stop offset="0" style="stop-color:#f7941d"/><stop offset=".492" style="stop-color:#f8991d"/><stop offset=".969" style="stop-color:#faa81d"/></linearGradient><path class="st0" style="fill:url(#a)" d="M233.8 316.5h-91.2l44.5-122.8h2.3z"/><linearGradient id="b" gradientUnits="userSpaceOnUse" x1="0" y1="283.826" x2="566.9" y2="283.826" gradientTransform="matrix(1 0 0 -1 0 567.276)"><stop offset="0" style="stop-color:#f7941d"/><stop offset=".163" style="stop-color:#f8991d"/><stop offset=".409" style="stop-color:#faa81d"/><stop offset=".706" style="stop-color:#fec11b"/><stop offset="1" style="stop-color:#ffde17"/></linearGradient><path style="fill:url(#b)" d="M393.4 0H173.5C77.7 0 0 77.7 0 173.5v219.9c0 95.8 77.7 173.5 173.5 173.5h219.9c95.8 0 173.5-77.7 173.5-173.5V173.5C566.9 77.7 489.2 0 393.4 0zm104 312.8c0 24.2-5.3 45.1-16.1 62.9-10.8 17.8-25.6 31.4-44.5 41.1-19 9.6-40.5 14.4-64.9 14.4-18.8 0-35.8-2.8-51.4-8.5l2.5 6.6h-48.3l-27.6-76.1H129.4l-27.6 76.1H53.5l108.4-287.8h52.6l30.3 80.2c6.7-18.3 16-33.8 28.3-46.6 12.2-12.8 26.4-22.6 42.8-29.4 16.4-6.7 34.4-10.2 54.1-10.2 16.2 0 31.4 2.2 45.6 6.8 14.1 4.6 26.7 11.1 37.6 19.6 11.1 8.5 20.2 18.4 27.4 30.1 7.3 11.5 12.3 24.4 14.7 38.4h-46.6v.1c-2.8-8.5-6.6-16.2-11.4-23-4.7-6.7-10.4-12.6-17.1-17.4-6.6-4.8-14-8.5-22.4-11-8.4-2.6-17.6-3.8-27.6-3.8-17.1 0-32.3 4.2-46 12.5-13.6 8.3-24.4 20.5-32.3 36.6-8 16-11.8 35.7-11.8 58.9 0 23.3 3.9 43.1 11.8 59.1 8 16.2 18.9 28.3 32.7 36.7 13.9 8.3 29.5 12.5 47.2 12.5 16.3 0 30.7-3.2 43-9.5 12.3-6.4 21.8-15.4 28.5-27.1 6.4-11.1 9.7-24.2 10.1-39.1h-74.5V280h118.6v32.8h-.1z"/></svg>