<svg xmlns="http://www.w3.org/2000/svg" viewBox="0 0 17.4 16.5" style="enable-background:new 0 0 17.4 16.5" xml:space="preserve"><path style="fill:#bdc0cb" d="M17.1 10.2h-.3c-.3 0-.4-.1-.5-.2s-.1-.3-.1-.5V3.1c0-1.1-.4-1.9-1.2-2.4-.9-.5-2-.7-3.3-.7-1.1 0-2.2.3-3 .8-.9.6-1.3 1.5-1.4 2.9h1.8c.1-.6.2-1 .4-1.3.4-.5 1.1-.8 2.1-.8.9 0 1.5.1 2 .4.5.3.7.8.7 1.4 0 .3 0 .6-.1.7-.1.3-.4.5-.9.5l-3 .4c-.3 0-.6.1-.8.2.4.4.8.9 1.1 1.4.2 0 .4-.1.6-.1l1.1-.1c.4 0 .7-.1 1.1-.2.3-.1.6-.2.9-.4v1.5c0 1.2-.5 2-1.6 2.5-.4.2-.9.4-1.3.4 0 .6-.2 1.1-.4 1.6.6-.1 1.1-.2 1.7-.5.7-.4 1.3-.8 1.7-1.3.1.4.2.8.3 1.1.3.5.8.7 1.4.7h.6c.2 0 .4-.1.7-.2v-1.4h-.3zM6.9 7.6c-.1.3-.1.6-.1 1 0 .9.3 1.7.9 2.3.2-.3.2-.7.2-1.1 0-.9-.4-1.7-1-2.2z"/><path style="fill:#bdc0cb" d="m11.4 15.2-2.1-2.3c.2-.3.4-.6.6-1 .2-.5.4-1.1.4-1.6v-.5c0-1-.3-2-.8-2.8-.2-.5-.6-1-1.1-1.3-.9-.7-2-1.1-3.2-1.1C2.3 4.6 0 6.9 0 9.8S2.3 15 5.2 15c1.2 0 2.2-.4 3.1-1l2 2.3c.1.2.4.2.6.2.2 0 .4-.1.5-.2.3-.3.3-.8 0-1.1zm-2.9-3.7c-.6 1.2-1.9 2-3.3 2-2 0-3.7-1.6-3.7-3.7s1.6-3.7 3.7-3.7c.8 0 1.5.2 2.1.6.7.5 1.2 1.2 1.5 2 .1.2.1.4.1.6v.5c0 .6-.1 1.2-.4 1.7z"/></svg>