<svg xmlns="http://www.w3.org/2000/svg" viewBox="0 0 22 23.3" style="enable-background:new 0 0 22 23.3" xml:space="preserve"><path style="fill:#bdc0cb" d="m19.9 11.8 1.8-3.2c.1-.2.1-.4.1-.7-.4-1.3-1.2-2.5-2.2-3.7-.1-.2-.4-.3-.6-.3h-3.8L13.4.7c-.1-.3-.4-.4-.6-.4-1.1-.2-2.3-.2-3.4 0-.2 0-.5.2-.6.4L6.9 3.9H3.1c-.2 0-.4.1-.6.3C1.4 5.4.6 6.7.2 8c0 .2 0 .4.1.6l1.8 3.1-1.7 3c-.1.1-.1.3-.1.4v.3C.8 16.9 1.6 18 2.5 19c.1.2.4.3.6.3h3.8l1.8 3.2c.1.3.4.5.7.5.5.1 1.1.1 1.6.1h.2c.5 0 1 0 1.4-.1.3 0 .5-.2.6-.5l1.9-3.3H19c.2 0 .4-.1.6-.3.8-.9 1.7-2 2.2-3.4.1-.2.1-.5 0-.7l-1.9-3zm.4 3.7c-.4.9-1 1.7-1.6 2.3l-.1.1h-4c-.2 0-.4.1-.5.3l-2 3.5H12c-.3 0-.7.1-1 .1-.4 0-.7 0-1-.1h-.1l-2-3.5c-.1-.2-.3-.3-.5-.3h-4l-.1-.1c-.6-.7-1.2-1.5-1.6-2.5v-.1L3.5 12c.1-.2.1-.4 0-.6L1.6 8.2v-.1c.4-.9.9-1.8 1.7-2.7l.1-.1h4c.2 0 .4-.1.5-.3l1.9-3.3h.1c.7-.1 1.5-.1 2.3 0h.1L14.2 5c.1.2.3.3.5.3h4l.1.1c.7.9 1.2 1.7 1.6 2.6v.1l-2 3.4c-.1.2-.1.4 0 .5l1.9 3.3v.2z"/><path style="fill:#bdc0cb" d="M11 6.6c-2.8 0-5.1 2.3-5.1 5.1s2.3 5.1 5.1 5.1 5.1-2.3 5.1-5.1-2.3-5.1-5.1-5.1zm0 8.9c-2.1 0-3.8-1.7-3.8-3.8 0-2.1 1.7-3.8 3.8-3.8s3.8 1.7 3.8 3.8c0 2.1-1.7 3.8-3.8 3.8z"/></svg>