<svg xmlns="http://www.w3.org/2000/svg" viewBox="0 0 18.5 13.2" style="enable-background:new 0 0 18.5 13.2" xml:space="preserve"><path style="fill:#bdc0cb" d="M17.1 13.2H1.4c-.7 0-1.4-.6-1.4-1.4V1.4C0 .6.6 0 1.4 0h15.8c.7 0 1.4.6 1.4 1.4v10.4c-.1.8-.7 1.4-1.5 1.4zM1.4 1c-.3 0-.4.2-.4.4v10.4c0 .2.2.4.4.4h15.8c.2 0 .4-.2.4-.4V1.4c0-.2-.2-.4-.4-.4H1.4z"/><path style="fill:#bdc0cb" d="M12.6 10.2H5.9c-.3 0-.6-.3-.6-.6s.3-.6.6-.6h6.7c.3 0 .6.3.6.6s-.3.6-.6.6zM3.4 4.1H3c-.3 0-.5-.2-.5-.5v-.5c0-.3.2-.5.5-.5h.4c.3 0 .5.2.5.5v.4c0 .3-.2.6-.5.6zM5.8 4.1h-.4c-.3 0-.5-.2-.5-.5v-.5c0-.3.2-.5.5-.5h.4c.3 0 .5.2.5.5v.4c0 .3-.2.6-.5.6zM8.2 4.1h-.4c-.3 0-.5-.2-.5-.5v-.5c0-.3.2-.5.5-.5h.4c.3 0 .5.2.5.5v.4c0 .3-.2.6-.5.6zM10.6 4.1h-.4c-.3 0-.5-.2-.5-.5v-.5c0-.3.2-.5.5-.5h.4c.3 0 .5.2.5.5v.4c0 .3-.2.6-.5.6zM13 4.1h-.4c-.3 0-.5-.2-.5-.5v-.5c0-.3.2-.5.5-.5h.4c.3 0 .5.2.5.5v.4c.1.3-.2.6-.5.6zM15.5 4.1h-.4c-.3 0-.5-.2-.5-.5v-.5c0-.3.2-.5.5-.5h.4c.3 0 .5.2.5.5v.4c0 .3-.2.6-.5.6zM3.4 6.6H3c-.3 0-.5-.2-.5-.6v-.3c0-.3.2-.6.5-.6h.4c.3 0 .5.2.5.6v.4c0 .3-.2.5-.5.5zM5.8 6.6h-.4c-.3 0-.5-.2-.5-.6v-.3c0-.3.2-.6.5-.6h.4c.3 0 .5.2.5.6v.4c0 .3-.2.5-.5.5zM8.2 6.6h-.4c-.3 0-.5-.2-.5-.6v-.3c0-.3.2-.6.5-.6h.4c.3 0 .5.2.5.6v.4c0 .3-.2.5-.5.5zM10.6 6.6h-.4c-.3 0-.5-.2-.5-.6v-.3c0-.3.2-.6.5-.6h.4c.3 0 .5.2.5.6v.4c0 .3-.2.5-.5.5zM13 6.6h-.4c-.3 0-.5-.2-.5-.6v-.3c0-.3.2-.6.5-.6h.4c.3 0 .5.2.5.6v.4c.1.3-.2.5-.5.5zM15.5 6.6h-.4c-.3 0-.5-.2-.5-.6v-.3c0-.3.2-.6.5-.6h.4c.3 0 .5.2.5.6v.4c0 .3-.2.5-.5.5z"/></svg>